<?xml version="1.0" encoding="utf-8"?>
<!-- Generator: Adobe Illustrator 28.1.0, SVG Export Plug-In . SVG Version: 6.00 Build 0)  -->
<svg version="1.1" id="Layer_1" xmlns="http://www.w3.org/2000/svg" xmlns:xlink="http://www.w3.org/1999/xlink" x="0px" y="0px"
	 viewBox="0 0 800 800" style="enable-background:new 0 0 800 800;" xml:space="preserve">
<style type="text/css">
	.st0{fill:#FECC85;}
	.st1{fill:#FF5E8A;}
	.st2{fill:#BDDEE5;}
	.st3{font-family:'AnnaiMN-Regular';}
	.st4{font-size:16px;}
	.st5{letter-spacing:31;}
</style>
<path class="st0" d="M528.4,479c0,0.1,0,0.3,0,0.4c1.1,20-5.4,35.1-14.5,49c-18.3,27.8-96.9,93.8-113.9,93.8
	c-16.7,0-96-66.3-114.1-93.8c-9.1-13.8-15.5-29-14.5-49c0-0.1,0-0.3,0-0.4L23.9,280.8v480h752.3v-480L528.4,479z"/>
<path class="st1" d="M462.2,414.9c-34.9,0-62.2,38.9-62.2,38.9s-25.8-38.9-62.2-38.9c-35.4,0-64.4,29.2-66.3,64.6
	c-1.1,20,5.4,35.2,14.5,49c18.1,27.5,97.4,93.8,114.1,93.8c17,0,95.6-66,113.9-93.8c9.1-13.8,15.5-29,14.5-49
	C526.6,444.1,497.6,414.9,462.2,414.9"/>
<path class="st2" d="M84.7,39.2v290.3L271.6,479c2.1-35.2,30.9-64.2,66.2-64.2c36.4,0,62.2,38.9,62.2,38.9s27.3-38.9,62.2-38.9
	c35.3,0,64.1,29,66.2,64.2l186.8-149.5V39.2H84.7z"/>
<path d="M786.5,259.3c-8.3-4-18.1-2.9-25.3,2.9l-22.1,17.7V39.2c0-13.2-10.7-23.9-23.9-23.9H84.7c-13.2,0-23.9,10.7-23.9,23.9v240.6
	l-22.1-17.7c-7.2-5.7-17-6.9-25.3-2.9C5.3,263.3,0,271.6,0,280.8v473.4v6.6c0,13.2,10.7,23.9,23.9,23.9h752.3
	c13.2,0,23.9-10.7,23.9-23.9v-6.6V280.8C800,271.6,794.7,263.3,786.5,259.3z M752.3,704.5L538.8,533.7c0.2-0.3,0.3-0.6,0.5-0.9
	c0.3-0.6,0.6-1.2,1-1.8c0.2-0.4,0.4-0.8,0.6-1.2c0.3-0.7,0.7-1.3,1-2c0.2-0.4,0.4-0.7,0.5-1.1c0.5-1,1-2.1,1.5-3.2
	c0.1-0.3,0.2-0.6,0.4-0.9c0.4-0.8,0.7-1.6,1-2.5c0.2-0.5,0.4-1,0.6-1.5c0.3-0.7,0.5-1.4,0.8-2.1c0.2-0.6,0.4-1.1,0.6-1.7
	c0.2-0.7,0.4-1.3,0.7-2c0.2-0.6,0.4-1.2,0.6-1.8c0.2-0.7,0.4-1.4,0.6-2.1c0.2-0.6,0.4-1.3,0.5-1.9c0.2-0.7,0.3-1.5,0.5-2.2
	c0.1-0.6,0.3-1.3,0.4-2c0.3-1.3,0.5-2.7,0.7-4c0.1-0.7,0.2-1.3,0.3-2c0.1-0.8,0.2-1.6,0.3-2.5c0.1-0.7,0.1-1.5,0.2-2.2
	c0-0.6,0.1-1.1,0.2-1.7l178-142.4c0,0,0,0,0,0l22.1-17.7L752.3,704.5L752.3,704.5z M488.2,522.8c-3.6,4.2-7.7,8.6-12.2,13.1
	c-13.7,13.7-31.9,29.5-47.8,41.9c-11.7,9.1-21.9,16.2-28.1,19.4c-6.9-3.6-19-12.1-32.4-22.7c-13.5-10.7-28.2-23.5-40.2-35.1
	c-5.9-5.8-11.3-11.4-15.8-16.7c-0.3-0.3-0.6-0.6-0.8-0.9c-2-2.4-3.7-4.6-5-6.6c-1-1.5-1.9-3-2.8-4.5c-0.4-0.7-0.7-1.3-1-1.9
	c-0.4-0.8-0.9-1.6-1.3-2.4c-0.4-0.9-0.8-1.8-1.2-2.7c-0.2-0.5-0.5-1-0.7-1.6c-0.5-1.1-0.8-2.3-1.2-3.4c-0.1-0.3-0.2-0.5-0.3-0.8
	c-0.4-1.3-0.7-2.6-1-3.9c0-0.1,0-0.2-0.1-0.2c-0.3-1.4-0.5-2.7-0.7-4.1c0,0,0-0.1,0-0.1c-0.1-1.2-0.2-2.5-0.3-3.7c0-0.2,0-0.4,0-0.6
	c0-0.9,0-1.9,0-2.8c0-0.6,0-1.2,0-1.8c0-0.1,0-0.1,0-0.2c0-0.3,0.1-0.7,0.1-1c0.1-1.1,0.2-2.3,0.4-3.4c0-0.1,0.1-0.3,0.1-0.4
	c3.2-19.4,19-34.9,37.8-36.8c1.3-0.1,2.7-0.2,4.1-0.2c2.4,0,4.7,0.3,7.1,0.9c16.3,4,30.6,20.5,35.3,27.3
	c4.4,6.6,11.7,10.6,19.6,10.7h0l0,0c0.1,0,0.2,0,0.3,0c7.5,0,14.4-3.5,19-9.4c0.2-0.3,0.4-0.5,0.6-0.8c3.5-4.9,17.2-20.8,32.2-26.6
	c3.5-1.3,7-2.1,10.5-2.1c1.4,0,2.7,0.1,4.1,0.2c18.8,2,34.6,17.5,37.8,36.9c0,0.1,0.1,0.2,0.1,0.4c0.2,1.2,0.3,2.4,0.4,3.6
	c0,0.3,0.1,0.5,0.1,0.8c0,0,0,0,0,0l0,0.2c0,0.9,0,1.7,0,2.6c0,0.6,0,1.3,0,1.9c0,0.8-0.1,1.6-0.2,2.4c0,0.6-0.1,1.2-0.1,1.9
	c-0.1,0.8-0.2,1.6-0.4,2.4c-0.1,0.6-0.2,1.2-0.3,1.9c-0.2,0.8-0.4,1.5-0.6,2.3c-0.2,0.6-0.3,1.2-0.5,1.9c-0.2,0.8-0.5,1.5-0.8,2.3
	c-0.2,0.6-0.4,1.2-0.7,1.9c-0.3,0.8-0.7,1.6-1.1,2.4c-0.3,0.6-0.5,1.2-0.8,1.9c-0.4,0.9-1,1.8-1.5,2.7c-0.3,0.6-0.6,1.1-0.9,1.6
	c-0.9,1.5-1.8,3-2.8,4.5c-1.3,2-3,4.2-5.1,6.7C488.7,522.3,488.5,522.5,488.2,522.8z M108.6,63.1h582.8v255L541,438.4
	c-11.6-21.2-31.1-37.2-54.3-43.9c-0.2,0-0.3-0.1-0.5-0.1c-1.7-0.5-3.5-0.9-5.2-1.3c-0.2,0-0.4-0.1-0.5-0.1c-1.9-0.4-3.7-0.7-5.6-1
	c-0.3,0-0.6-0.1-0.8-0.1c-1.6-0.2-3.1-0.4-4.7-0.5c-0.5,0-1-0.1-1.4-0.1c-1.9-0.1-3.7-0.2-5.6-0.2c-24.3,0-44.7,12.3-59.1,24.6
	c-1,0.8-1.9,1.6-2.8,2.5c-1.8-1.6-3.7-3.3-5.7-4.9c-14.1-11.5-33.4-22.1-56.8-22.1c-1.9,0-3.8,0.1-5.6,0.2c-0.5,0-1,0.1-1.4,0.1
	c-1.6,0.1-3.2,0.3-4.7,0.5c-0.3,0-0.6,0.1-0.8,0.1c-1.9,0.3-3.8,0.6-5.6,1c-0.2,0-0.4,0.1-0.5,0.1c-1.8,0.4-3.5,0.8-5.2,1.3
	c-0.2,0-0.3,0.1-0.5,0.1c-23.2,6.7-42.7,22.7-54.3,43.9L108.6,318L108.6,63.1L108.6,63.1z M69.8,348.1
	C69.8,348.1,69.8,348.1,69.8,348.1l178,142.4c0.1,0.7,0.1,1.4,0.2,2.1c0.1,0.5,0.1,1.1,0.1,1.6c0.1,1.2,0.3,2.4,0.5,3.6
	c0,0.3,0.1,0.6,0.1,0.9c0.2,1.5,0.5,2.9,0.8,4.3c0.1,0.4,0.2,0.8,0.3,1.2c0.2,1,0.4,2,0.7,3c0.1,0.5,0.3,1,0.4,1.5
	c0.2,0.8,0.5,1.7,0.7,2.5c0.1,0.5,0.3,1,0.5,1.5c0.3,0.8,0.5,1.6,0.8,2.4c0.2,0.5,0.3,1,0.5,1.4c0.3,0.8,0.6,1.6,0.9,2.4
	c0.2,0.4,0.3,0.8,0.5,1.2c0.4,1,0.8,2.1,1.3,3c0.1,0.1,0.1,0.2,0.2,0.4c0.5,1.1,1,2.2,1.5,3.3c0.2,0.3,0.3,0.6,0.5,0.9
	c0.4,0.7,0.7,1.5,1.1,2.2c0.2,0.4,0.4,0.7,0.6,1.1c0.3,0.6,0.7,1.3,1,1.9c0.1,0.3,0.3,0.5,0.5,0.8L47.7,704.5v-374L69.8,348.1z
	 M83.6,736.9l207.7-166.2c0.2,0.2,0.4,0.4,0.6,0.6c1.1,1.1,2.2,2.2,3.4,3.3c0.5,0.5,1,0.9,1.5,1.4c1.1,1.1,2.3,2.2,3.5,3.3
	c0.5,0.5,1,1,1.6,1.5c1.5,1.4,3.1,2.9,4.6,4.3c0.9,0.8,1.8,1.6,2.7,2.4c0.8,0.7,1.5,1.4,2.3,2.1c0.9,0.8,1.8,1.6,2.7,2.4
	c0.9,0.8,1.8,1.5,2.6,2.3c0.8,0.7,1.6,1.4,2.3,2c1.7,1.5,3.4,2.9,5.1,4.4c0,0,0.1,0.1,0.1,0.1c1.4,1.1,2.7,2.3,4,3.4
	c0.5,0.4,1,0.8,1.5,1.2c0.2,0.2,0.5,0.4,0.7,0.6c9.3,7.6,17.3,13.8,24.2,18.7c0.1,0.1,0.2,0.1,0.3,0.2c0.8,0.5,1.5,1.1,2.3,1.6
	c27.8,19.6,37.2,19.6,42.7,19.6c4.2,0,11.3,0,28.4-10.2c0.5-0.3,1.1-0.7,1.7-1c0.2-0.1,0.4-0.2,0.6-0.4c9.6-5.9,22.2-14.9,38.7-28.5
	c0.3-0.3,0.6-0.5,0.9-0.8c0.5-0.4,0.9-0.8,1.4-1.2c1.2-1,2.5-2.1,3.8-3.2c0.1-0.1,0.3-0.2,0.4-0.3c1.6-1.4,3.3-2.8,5-4.2
	c0.8-0.7,1.7-1.4,2.5-2.2c0.8-0.7,1.6-1.4,2.5-2.2c0.9-0.8,1.9-1.7,2.8-2.5c0.8-0.7,1.5-1.3,2.2-2c0.9-0.8,1.8-1.6,2.7-2.5
	c1.6-1.4,3.1-2.9,4.6-4.3c0.5-0.4,0.9-0.8,1.3-1.3c1.2-1.2,2.5-2.3,3.7-3.5c0.4-0.4,0.9-0.8,1.3-1.2c1.2-1.2,2.4-2.3,3.5-3.5
	c0.2-0.2,0.4-0.4,0.5-0.5l207.6,166.2L83.6,736.9L83.6,736.9z"/>
<text transform="matrix(1 0 0 1 144 100)"><tspan x="0" y="0" class="st3 st4">Helu baby!</tspan><tspan x="0" y="19.2" class="st3 st4">Bất ngờ chưa hí hí hí. Hôm nay là ngày mùng 8 tháng 3, </tspan><tspan x="0" y="38.4" class="st3 st4">anh chúc người phụ nữa chân dài miên man hiền hậu đảm đâng </tspan><tspan x="0" y="57.6" class="st3 st4">không bao giờ mắng chửi người yêu của anh một ngày thật rạng rỡ.</tspan><tspan x="0" y="76.8" class="st3 st4">Chúc em ngày nào cũng xinh đẹp, tươi cười và yêu anh. </tspan><tspan x="0" y="115.2" class="st3 st4">Bây h thì em ấn vào trái tim để có thêm nhiều bất ngờ nữa nhớ. </tspan><tspan x="0" y="134.4" class="st3 st4">Xa lang hê dô!</tspan><tspan x="0" y="153.6" class="st3 st4 st5">												</tspan><tspan x="432" y="153.6" class="st3 st4">Phi Kong</tspan></text>
</svg>
