<?xml version="1.0" encoding="iso-8859-1"?>
<!-- Uploaded to: SVG Repo, www.svgrepo.com, Generator: SVG Repo Mixer Tools -->
<svg height="800px" width="800px" version="1.1" id="Layer_1" xmlns="http://www.w3.org/2000/svg" xmlns:xlink="http://www.w3.org/1999/xlink" 
	 viewBox="0 0 512 512" xml:space="preserve">
<path style="fill:#FFDDD2;" d="M14.216,61.793v388.413h483.569V61.793H14.216z M353.996,302.991
	c-15.695,23.865-83.254,80.613-97.89,80.613c-14.34,0-82.506-56.954-98.097-80.613c-7.802-11.841-13.34-24.915-12.424-42.094
	c1.628-30.408,26.493-55.524,56.943-55.524c31.305,0,53.478,33.405,53.478,33.405s23.505-33.405,53.464-33.405
	c30.452,0,55.319,25.116,56.946,55.524C367.336,278.076,361.815,291.095,353.996,302.991z"/>
<path style="fill:#FF8DC7;" d="M309.469,205.373c-29.959,0-53.464,33.405-53.464,33.405s-22.173-33.405-53.478-33.405
	c-30.45,0-55.315,25.116-56.943,55.524c-0.917,17.179,4.622,30.253,12.424,42.094c15.592,23.657,83.757,80.613,98.097,80.613
	c14.636,0,82.195-56.747,97.89-80.613c7.819-11.895,13.342-24.915,12.421-42.094C364.789,230.488,339.922,205.373,309.469,205.373"
	/>
<path style="fill:#FFACC7;" d="M497.784,47.577H14.216C6.365,47.577,0,53.942,0,61.793v79.864v304.304v4.245c0,7.852,6.365,14.216,14.216,14.216h483.568
	c7.852,0,14.216-6.365,14.216-14.216v-4.245V141.659V61.793C512,53.942,505.635,47.577,497.784,47.577z M28.432,171.244
	l103.539,82.862c-0.131,0.975-0.252,1.955-0.345,2.941c-0.102,1.024-0.183,2.054-0.239,3.092
	c-1.251,23.458,7.819,40.155,14.749,50.675c0.34,0.516,0.702,1.043,1.076,1.577c0.104,0.148,0.215,0.3,0.321,0.449
	c0.287,0.404,0.583,0.81,0.889,1.224c0.112,0.152,0.227,0.306,0.343,0.459c0.331,0.441,0.671,0.886,1.021,1.336
	c0.091,0.118,0.182,0.235,0.274,0.353c0.445,0.569,0.903,1.143,1.378,1.724l0,0L28.432,416.375V171.244z M159.78,261.657
	c0.043-0.792,0.109-1.579,0.193-2.361c0.017-0.155,0.04-0.307,0.058-0.461c0.077-0.65,0.163-1.297,0.269-1.938
	c0.018-0.115,0.041-0.23,0.061-0.345c0.121-0.699,0.253-1.395,0.407-2.083c0.011-0.05,0.023-0.098,0.033-0.148
	c0.171-0.758,0.358-1.508,0.566-2.252v-0.001c0.301-1.089,0.644-2.158,1.019-3.209c0.04-0.109,0.081-0.216,0.124-0.324
	c0.041-0.111,0.084-0.22,0.125-0.33c0.269-0.719,0.564-1.423,0.867-2.121c0.335-0.766,0.688-1.523,1.065-2.265
	c0.087-0.173,0.173-0.348,0.263-0.52c0.001-0.003,0.003-0.004,0.004-0.007c0.328-0.627,0.671-1.245,1.026-1.855
	c0.053-0.09,0.108-0.176,0.162-0.266c0.307-0.519,0.621-1.032,0.948-1.538c0.087-0.134,0.178-0.262,0.264-0.394
	c0.303-0.456,0.608-0.91,0.927-1.353c0.108-0.151,0.222-0.299,0.331-0.449c0.307-0.418,0.617-0.833,0.938-1.24
	c0.125-0.158,0.253-0.313,0.38-0.469c0.317-0.391,0.637-0.779,0.965-1.159c0.136-0.158,0.277-0.311,0.415-0.468
	c0.328-0.37,0.661-0.734,1.001-1.092c0.148-0.155,0.299-0.308,0.448-0.461c0.341-0.35,0.688-0.695,1.041-1.032
	c0.155-0.148,0.311-0.294,0.468-0.439c0.358-0.333,0.721-0.661,1.089-0.982c0.159-0.139,0.32-0.276,0.48-0.414
	c0.375-0.318,0.756-0.63,1.142-0.935c0.161-0.128,0.323-0.254,0.486-0.38c0.395-0.304,0.796-0.601,1.201-0.891
	c0.161-0.115,0.321-0.232,0.485-0.344c0.417-0.29,0.839-0.571,1.265-0.847c0.158-0.102,0.314-0.205,0.473-0.304
	c0.444-0.279,0.893-0.546,1.345-0.807c0.148-0.085,0.296-0.173,0.445-0.257c0.473-0.266,0.952-0.522,1.436-0.769
	c0.135-0.07,0.267-0.141,0.404-0.209c0.512-0.256,1.031-0.499,1.554-0.735c0.111-0.05,0.22-0.102,0.331-0.152
	c0.564-0.249,1.134-0.482,1.71-0.705c0.074-0.028,0.145-0.06,0.219-0.088c0.65-0.247,1.305-0.481,1.968-0.695
	c0.192-0.061,0.385-0.122,0.579-0.181h0.001c0.779-0.24,1.567-0.452,2.361-0.645c0.583-0.139,1.169-0.274,1.759-0.388
	c0.155-0.03,0.311-0.057,0.466-0.085c0.21-0.04,0.419-0.081,0.631-0.117c0.911-0.151,1.828-0.276,2.754-0.364
	c0.222-0.021,0.446-0.036,0.67-0.053c0.493-0.038,0.987-0.07,1.483-0.094c0.549-0.023,1.098-0.044,1.649-0.044
	c23.15,0,41.477,26.817,41.633,27.051c2.596,3.911,6.957,6.289,11.652,6.353c4.07,0.047,7.998-1.668,10.726-4.67
	c0.39-0.429,0.755-0.884,1.093-1.363c4.997-7.101,23.407-27.369,41.838-27.369c0.553,0,1.102,0.02,1.649,0.044
	c0.496,0.024,0.989,0.055,1.483,0.094c0.223,0.018,0.446,0.031,0.67,0.053c0.925,0.088,1.844,0.213,2.755,0.364
	c0.318,0.054,0.635,0.115,0.952,0.175c0.047,0.009,0.095,0.017,0.142,0.026c0.591,0.114,1.176,0.249,1.76,0.388
	c0.001,0,0.001,0,0.003,0c0.792,0.193,1.577,0.405,2.353,0.644c0.196,0.06,0.391,0.121,0.586,0.182c0.001,0,0.004,0.001,0.006,0.001
	c0.661,0.215,1.315,0.446,1.962,0.694c0.075,0.028,0.149,0.061,0.223,0.09c0.573,0.222,1.142,0.455,1.705,0.702
	c0.115,0.051,0.227,0.105,0.343,0.156c0.519,0.235,1.035,0.475,1.544,0.729c0.138,0.068,0.273,0.142,0.409,0.212
	c0.481,0.247,0.958,0.5,1.43,0.766c0.152,0.085,0.301,0.175,0.452,0.262c0.449,0.26,0.896,0.527,1.336,0.803
	c0.161,0.101,0.32,0.205,0.479,0.308c0.425,0.274,0.846,0.556,1.261,0.844c0.163,0.114,0.326,0.23,0.488,0.347
	c0.404,0.29,0.802,0.584,1.196,0.889c0.165,0.128,0.33,0.256,0.493,0.387c0.382,0.303,0.761,0.613,1.134,0.93
	c0.164,0.139,0.327,0.279,0.488,0.419c0.367,0.32,0.726,0.645,1.082,0.977c0.158,0.148,0.317,0.294,0.473,0.445
	c0.351,0.337,0.695,0.68,1.035,1.028c0.152,0.155,0.304,0.308,0.454,0.466c0.338,0.355,0.668,0.718,0.994,1.085
	c0.141,0.158,0.283,0.316,0.422,0.475c0.327,0.378,0.645,0.763,0.961,1.153c0.128,0.158,0.259,0.314,0.384,0.473
	c0.32,0.405,0.628,0.819,0.934,1.235c0.111,0.151,0.225,0.3,0.334,0.454c0.317,0.444,0.624,0.897,0.925,1.353
	c0.088,0.132,0.179,0.262,0.266,0.395c0.326,0.502,0.638,1.014,0.944,1.53c0.055,0.092,0.114,0.183,0.168,0.277
	c0.355,0.61,0.699,1.23,1.028,1.858c0,0.001,0.001,0.003,0.001,0.003c0.084,0.162,0.163,0.323,0.245,0.485
	c0.384,0.758,0.745,1.53,1.088,2.313c0,0,0,0,0,0.001c0.297,0.685,0.586,1.376,0.85,2.081c0.087,0.227,0.176,0.455,0.26,0.684
	c0.372,1.041,0.711,2.101,1.011,3.18v0.001c0.208,0.745,0.395,1.497,0.567,2.255c0.011,0.051,0.023,0.101,0.034,0.152
	c0.152,0.688,0.286,1.383,0.407,2.083c0.02,0.117,0.043,0.232,0.061,0.35c0.105,0.641,0.192,1.288,0.269,1.938
	c0.018,0.155,0.043,0.31,0.06,0.465c0.085,0.782,0.152,1.569,0.193,2.364c0.078,1.47,0.101,2.913,0.064,4.336
	c-0.262,9.958-3.419,18.917-10.167,29.186c-0.354,0.537-0.755,1.11-1.184,1.702c-0.155,0.215-0.33,0.442-0.496,0.664
	c-0.286,0.382-0.577,0.771-0.891,1.171c-0.232,0.297-0.476,0.604-0.724,0.913c-0.267,0.334-0.544,0.675-0.83,1.021
	c-0.306,0.371-0.617,0.746-0.943,1.13c-0.235,0.277-0.482,0.563-0.726,0.847c-0.397,0.461-0.793,0.921-1.215,1.399
	c-0.085,0.097-0.179,0.199-0.264,0.296c-1.75,1.97-3.698,4.07-5.824,6.274c-0.028,0.03-0.055,0.058-0.084,0.087
	c-0.365,0.378-0.731,0.758-1.1,1.136c-0.033,0.033-0.067,0.068-0.1,0.101c-0.935,0.957-1.901,1.931-2.894,2.919
	c-0.166,0.165-0.34,0.334-0.508,0.5c-0.871,0.864-1.761,1.737-2.673,2.621c-0.235,0.227-0.476,0.459-0.714,0.688
	c-0.864,0.833-1.742,1.673-2.637,2.522c-0.277,0.262-0.557,0.526-0.837,0.789c-0.881,0.83-1.777,1.666-2.687,2.508
	c-0.296,0.274-0.594,0.549-0.893,0.825c-0.923,0.849-1.859,1.703-2.806,2.56c-0.287,0.26-0.574,0.519-0.863,0.78
	c-0.994,0.894-2,1.791-3.017,2.691c-0.256,0.226-0.51,0.452-0.766,0.68c-1.092,0.962-2.199,1.926-3.314,2.892
	c-0.188,0.162-0.372,0.324-0.562,0.488c-1.297,1.119-2.606,2.236-3.926,3.352c-0.006,0.004-0.011,0.01-0.017,0.014
	c-11.642,9.791-22.901,18.31-31.315,23.907c-2.521,1.658-4.701,2.998-6.539,4.049c-0.08,0.046-0.163,0.095-0.243,0.139
	c-0.353,0.2-0.684,0.382-1.009,0.559c-0.171,0.092-0.338,0.183-0.502,0.27c-0.262,0.139-0.516,0.272-0.758,0.395
	c-0.219,0.111-0.426,0.213-0.63,0.311c-0.175,0.085-0.355,0.175-0.519,0.25c-0.354,0.163-0.688,0.313-0.985,0.434
	c-5.169-2.064-16.306-9.538-29.311-19.657c-2.993-2.349-6.066-4.822-9.162-7.374c-0.006-0.004-0.01-0.009-0.016-0.013
	c-4.626-3.813-9.306-7.805-13.857-11.824c-0.034-0.031-0.07-0.061-0.104-0.092c-4.553-4.025-8.976-8.078-13.082-12.01
	c-2.865-2.768-5.65-5.543-8.301-8.301c-0.193-0.202-0.401-0.382-0.603-0.57c-0.348-0.364-0.68-0.718-1.018-1.076
	c-0.39-0.412-0.778-0.823-1.153-1.228c-0.343-0.368-0.675-0.732-1.007-1.095c-0.377-0.412-0.744-0.819-1.105-1.223
	c-0.291-0.326-0.587-0.654-0.869-0.974c-0.594-0.675-1.173-1.342-1.719-1.992c-0.156-0.186-0.299-0.364-0.452-0.547
	c-0.428-0.515-0.843-1.021-1.238-1.515c-0.192-0.24-0.374-0.475-0.559-0.711c-0.348-0.445-0.681-0.881-0.998-1.309
	c-0.154-0.206-0.31-0.414-0.456-0.616c-0.428-0.59-0.833-1.167-1.198-1.719c-0.011-0.018-0.027-0.038-0.038-0.055
	c-0.962-1.46-1.851-2.894-2.67-4.31c-5.325-9.209-7.641-17.597-7.503-27.011C159.715,263.124,159.74,262.394,159.78,261.657z
	 M49.427,435.99l121.574-97.296c3.332,3.204,6.781,6.407,10.251,9.543c0.027,0.024,0.054,0.05,0.081,0.074
	c1.102,0.994,2.203,1.98,3.305,2.958c0.095,0.084,0.189,0.168,0.283,0.252c1.061,0.94,2.12,1.871,3.176,2.791
	c0.129,0.112,0.257,0.223,0.385,0.336c1.039,0.904,2.076,1.8,3.103,2.681c0.124,0.107,0.247,0.212,0.371,0.317
	c1.039,0.889,2.073,1.767,3.095,2.629c0.087,0.074,0.172,0.145,0.259,0.217c1.062,0.893,2.114,1.771,3.15,2.629
	c0.668,0.553,1.306,1.072,1.959,1.606c0.068,0.055,0.136,0.112,0.205,0.168c0.004,0.003,0.007,0.006,0.011,0.01
	c4.95,4.056,9.459,7.614,13.567,10.73c0.045,0.034,0.091,0.068,0.136,0.104c3.128,2.371,6.025,4.491,8.706,6.379
	c0.216,0.152,0.431,0.304,0.644,0.452c0.526,0.368,1.046,0.731,1.555,1.08c0.267,0.183,0.527,0.361,0.79,0.54
	c0.471,0.321,0.944,0.645,1.4,0.951c0.544,0.365,1.072,0.714,1.596,1.059c0.435,0.286,0.861,0.562,1.284,0.834
	c0.382,0.246,0.763,0.492,1.134,0.728c0.303,0.192,0.599,0.378,0.894,0.562c0.392,0.246,0.779,0.485,1.159,0.716
	c0.254,0.156,0.51,0.313,0.759,0.463c0.483,0.291,0.952,0.57,1.416,0.842c0.134,0.078,0.273,0.163,0.405,0.24
	c0.001,0.001,0.004,0.003,0.006,0.004c11.094,6.511,16.14,7.154,19.107,7.218c0.023,0,0.044,0.001,0.067,0.001
	c0.134,0.003,0.264,0.006,0.39,0.006c0.159,0.001,0.31,0.001,0.452,0.001c0.144,0,0.297,0,0.458-0.001
	c0.124-0.001,0.253-0.004,0.384-0.006c0.027,0,0.053-0.001,0.081-0.001c3.001-0.064,8.09-0.708,19.159-7.185
	c0.192-0.111,0.392-0.232,0.587-0.347c0.407-0.239,0.817-0.482,1.24-0.736c0.273-0.165,0.554-0.337,0.835-0.509
	c0.354-0.218,0.714-0.439,1.079-0.667c0.313-0.195,0.627-0.392,0.948-0.596c0.345-0.219,0.701-0.448,1.056-0.677
	c0.82-0.529,1.666-1.082,2.538-1.665c0.128-0.085,0.25-0.165,0.38-0.252c0.478-0.32,0.972-0.658,1.466-0.995
	c0.239-0.163,0.475-0.323,0.716-0.49c0.525-0.361,1.061-0.734,1.604-1.115c0.192-0.134,0.385-0.272,0.579-0.408
	c2.704-1.905,5.625-4.045,8.781-6.443c0.018-0.014,0.037-0.028,0.055-0.043c4.693-3.568,9.887-7.69,15.683-12.502
	c1.019-0.846,2.054-1.714,3.098-2.594c0.104-0.087,0.206-0.173,0.31-0.26c0.998-0.844,2.007-1.705,3.022-2.576
	c0.144-0.124,0.286-0.246,0.431-0.37c1.009-0.867,2.024-1.749,3.044-2.64c0.144-0.125,0.286-0.25,0.429-0.375
	c1.031-0.903,2.064-1.815,3.101-2.737c0.122-0.108,0.243-0.217,0.365-0.326c1.066-0.95,2.132-1.908,3.197-2.873
	c0.073-0.065,0.144-0.131,0.216-0.196c3.413-3.099,6.805-6.265,10.086-9.435c0.016-0.014,0.031-0.03,0.046-0.044l121.496,97.233
	H49.427V435.99z M483.568,416.375l-122.988-98.429c0.017-0.021,0.034-0.043,0.051-0.064c0.449-0.556,0.886-1.105,1.309-1.649
	c0.1-0.127,0.196-0.253,0.293-0.378c0.343-0.442,0.675-0.88,0.999-1.315c0.119-0.161,0.239-0.32,0.357-0.479
	c0.301-0.408,0.591-0.81,0.874-1.21c0.109-0.155,0.223-0.311,0.331-0.465c0.372-0.532,0.732-1.058,1.07-1.574
	c0.003-0.003,0.004-0.007,0.007-0.01c0-0.001,0.001-0.003,0.003-0.004c6.928-10.54,15.992-27.258,14.736-50.661
	c-0.055-1.039-0.138-2.07-0.24-3.093c-0.094-0.984-0.213-1.959-0.344-2.931c0-0.001,0-0.003,0-0.004l103.541-82.863V416.375z
	 M483.568,134.826L370.02,225.699l0,0c-4.133-6.817-9.326-12.871-15.341-17.937c-0.017-0.014-0.036-0.03-0.053-0.044
	c-5.005-4.207-10.573-7.722-16.569-10.419c-0.028-0.013-0.058-0.026-0.087-0.038c-1.176-0.526-2.367-1.021-3.574-1.484
	c-0.023-0.009-0.046-0.018-0.068-0.027c-4.942-1.886-10.136-3.227-15.517-3.951h-0.001c-0.088-0.013-0.178-0.023-0.266-0.033
	c-1.369-0.179-2.748-0.317-4.14-0.415c-0.216-0.017-0.434-0.036-0.65-0.048h-0.001c-0.522-0.031-1.046-0.057-1.571-0.077
	c-0.9-0.038-1.804-0.068-2.712-0.068c-22.766,0-41.774,14.385-53.269,25.792c-11.273-11.465-30.08-25.792-53.673-25.792
	c-0.91,0-1.813,0.028-2.712,0.068c-0.525,0.02-1.048,0.045-1.571,0.077h-0.001c-0.229,0.014-0.455,0.033-0.682,0.051
	c-6.945,0.492-13.622,2.003-19.891,4.397c-0.02,0.007-0.04,0.016-0.06,0.023c-1.21,0.463-2.404,0.96-3.584,1.487
	c-0.027,0.011-0.053,0.023-0.08,0.036c-5.998,2.695-11.568,6.212-16.573,10.42c-0.017,0.014-0.036,0.03-0.053,0.044
	c-6.016,5.065-11.208,11.121-15.342,17.938l0,0L28.432,134.826V76.01h455.135V134.826z"/>
<path style="fill:#FF8DC7;" d="M328.734,138.282H140.847c-7.852,0-14.216-6.365-14.216-14.216s6.365-14.216,14.216-14.216h187.887
	c7.852,0,14.216,6.365,14.216,14.216S336.585,138.282,328.734,138.282z"/>
<path style="fill:#FF8DC7;" d="M371.152,138.277c-0.924,0-1.862-0.085-2.772-0.27s-1.805-0.455-2.658-0.81c-0.867-0.355-1.692-0.796-2.459-1.308
	c-0.782-0.526-1.507-1.123-2.161-1.777c-0.654-0.654-1.251-1.379-1.763-2.161c-0.512-0.768-0.952-1.592-1.308-2.445
	s-0.626-1.749-0.81-2.658c-0.185-0.924-0.284-1.848-0.284-2.786c0-0.924,0.1-1.848,0.284-2.772c0.185-0.91,0.455-1.805,0.81-2.658
	c0.355-0.853,0.796-1.692,1.308-2.459c0.512-0.768,1.109-1.507,1.763-2.161c0.654-0.654,1.379-1.251,2.161-1.763
	c0.768-0.512,1.592-0.952,2.459-1.308c0.853-0.355,1.749-0.626,2.658-0.81c1.834-0.37,3.725-0.37,5.559,0
	c0.896,0.185,1.791,0.455,2.658,0.81c0.853,0.355,1.677,0.796,2.445,1.308c0.782,0.512,1.507,1.109,2.161,1.763
	c0.654,0.654,1.251,1.393,1.777,2.161c0.512,0.768,0.938,1.606,1.294,2.459c0.355,0.853,0.64,1.749,0.825,2.658
	c0.185,0.924,0.27,1.848,0.27,2.772c0,0.938-0.085,1.862-0.27,2.786c-0.185,0.91-0.469,1.805-0.825,2.658s-0.782,1.678-1.294,2.445
	c-0.526,0.782-1.123,1.507-1.777,2.161c-0.654,0.654-1.379,1.251-2.161,1.777c-0.768,0.512-1.592,0.952-2.445,1.308
	c-0.867,0.355-1.763,0.626-2.658,0.81C373.014,138.191,372.076,138.277,371.152,138.277z"/>
</svg>